ISO-10303-21;
HEADER;
FILE_DESCRIPTION((''),'2;1');
FILE_NAME('LCD-NFP190B','2026-08-13T10:00:59',('HR'),(''),
'CREO PARAMETRIC BY PTC INC, 2020053','CREO PARAMETRIC BY PTC INC, 2020053','');
FILE_SCHEMA(('AUTOMOTIVE_DESIGN { 1 0 10303 214 1 1 1 1 }'));
ENDSEC;
DATA;
#16=DIRECTION('',(0.E0,-1.E0,0.E0));
#17=VECTOR('',#16,4.987E1);
#18=CARTESIAN_POINT('',(-1.2975E1,2.29875E1,0.E0));
#19=LINE('',#18,#17);
#20=DIRECTION('',(1.E0,0.E0,0.E0));
#21=VECTOR('',#20,2.595E1);
#22=CARTESIAN_POINT('',(-1.2975E1,-2.68825E1,0.E0));
#23=LINE('',#22,#21);
#24=DIRECTION('',(0.E0,1.E0,0.E0));
#25=VECTOR('',#24,4.987E1);
#26=CARTESIAN_POINT('',(1.2975E1,-2.68825E1,0.E0));
#27=LINE('',#26,#25);
#28=DIRECTION('',(-1.E0,0.E0,0.E0));
#29=VECTOR('',#28,2.595E1);
#30=CARTESIAN_POINT('',(1.2975E1,2.29875E1,0.E0));
#31=LINE('',#30,#29);
#32=DIRECTION('',(0.E0,0.E0,1.E0));
#33=VECTOR('',#32,1.53E0);
#34=CARTESIAN_POINT('',(1.2975E1,2.29875E1,0.E0));
#35=LINE('',#34,#33);
#36=DIRECTION('',(0.E0,0.E0,-1.E0));
#37=VECTOR('',#36,1.53E0);
#38=CARTESIAN_POINT('',(-1.2975E1,2.29875E1,1.53E0));
#39=LINE('',#38,#37);
#40=DIRECTION('',(0.E0,0.E0,1.E0));
#41=VECTOR('',#40,1.53E0);
#42=CARTESIAN_POINT('',(1.2975E1,-2.68825E1,0.E0));
#43=LINE('',#42,#41);
#44=DIRECTION('',(0.E0,0.E0,1.E0));
#45=VECTOR('',#44,1.53E0);
#46=CARTESIAN_POINT('',(-1.2975E1,-2.68825E1,0.E0));
#47=LINE('',#46,#45);
#48=DIRECTION('',(0.E0,-1.E0,0.E0));
#49=VECTOR('',#48,4.987E1);
#50=CARTESIAN_POINT('',(-1.2975E1,2.29875E1,1.53E0));
#51=LINE('',#50,#49);
#52=DIRECTION('',(-1.E0,0.E0,0.E0));
#53=VECTOR('',#52,2.595E1);
#54=CARTESIAN_POINT('',(1.2975E1,2.29875E1,1.53E0));
#55=LINE('',#54,#53);
#56=DIRECTION('',(0.E0,1.E0,0.E0));
#57=VECTOR('',#56,4.987E1);
#58=CARTESIAN_POINT('',(1.2975E1,-2.68825E1,1.53E0));
#59=LINE('',#58,#57);
#60=DIRECTION('',(1.E0,0.E0,0.E0));
#61=VECTOR('',#60,2.595E1);
#62=CARTESIAN_POINT('',(-1.2975E1,-2.68825E1,1.53E0));
#63=LINE('',#62,#61);
#64=DIRECTION('',(0.E0,-1.E0,0.E0));
#65=VECTOR('',#64,4.272E1);
#66=CARTESIAN_POINT('',(-1.13475E1,2.136E1,1.53E0));
#67=LINE('',#66,#65);
#68=DIRECTION('',(1.E0,0.E0,0.E0));
#69=VECTOR('',#68,2.2695E1);
#70=CARTESIAN_POINT('',(-1.13475E1,-2.136E1,1.53E0));
#71=LINE('',#70,#69);
#72=DIRECTION('',(0.E0,1.E0,0.E0));
#73=VECTOR('',#72,4.272E1);
#74=CARTESIAN_POINT('',(1.13475E1,-2.136E1,1.53E0));
#75=LINE('',#74,#73);
#76=DIRECTION('',(-1.E0,0.E0,0.E0));
#77=VECTOR('',#76,2.2695E1);
#78=CARTESIAN_POINT('',(1.13475E1,2.136E1,1.53E0));
#79=LINE('',#78,#77);
#80=DIRECTION('',(0.E0,0.E0,-1.E0));
#81=VECTOR('',#80,1.E-1);
#82=CARTESIAN_POINT('',(-1.13475E1,2.136E1,1.53E0));
#83=LINE('',#82,#81);
#84=DIRECTION('',(0.E0,0.E0,-1.E0));
#85=VECTOR('',#84,1.E-1);
#86=CARTESIAN_POINT('',(1.13475E1,2.136E1,1.53E0));
#87=LINE('',#86,#85);
#88=DIRECTION('',(0.E0,0.E0,-1.E0));
#89=VECTOR('',#88,1.E-1);
#90=CARTESIAN_POINT('',(1.13475E1,-2.136E1,1.53E0));
#91=LINE('',#90,#89);
#92=DIRECTION('',(0.E0,0.E0,-1.E0));
#93=VECTOR('',#92,1.E-1);
#94=CARTESIAN_POINT('',(-1.13475E1,-2.136E1,1.53E0));
#95=LINE('',#94,#93);
#96=DIRECTION('',(0.E0,-1.E0,0.E0));
#97=VECTOR('',#96,4.272E1);
#98=CARTESIAN_POINT('',(-1.13475E1,2.136E1,1.43E0));
#99=LINE('',#98,#97);
#100=DIRECTION('',(-1.E0,0.E0,0.E0));
#101=VECTOR('',#100,2.2695E1);
#102=CARTESIAN_POINT('',(1.13475E1,2.136E1,1.43E0));
#103=LINE('',#102,#101);
#104=DIRECTION('',(0.E0,1.E0,0.E0));
#105=VECTOR('',#104,4.272E1);
#106=CARTESIAN_POINT('',(1.13475E1,-2.136E1,1.43E0));
#107=LINE('',#106,#105);
#108=DIRECTION('',(1.E0,0.E0,0.E0));
#109=VECTOR('',#108,2.2695E1);
#110=CARTESIAN_POINT('',(-1.13475E1,-2.136E1,1.43E0));
#111=LINE('',#110,#109);
#112=CARTESIAN_POINT('',(-1.13475E1,2.136E1,1.43E0));
#113=CARTESIAN_POINT('',(-1.13475E1,-2.136E1,1.43E0));
#114=VERTEX_POINT('',#112);
#115=VERTEX_POINT('',#113);
#116=CARTESIAN_POINT('',(1.13475E1,-2.136E1,1.43E0));
#117=VERTEX_POINT('',#116);
#118=CARTESIAN_POINT('',(1.13475E1,2.136E1,1.43E0));
#119=VERTEX_POINT('',#118);
#120=CARTESIAN_POINT('',(-1.13475E1,2.136E1,1.53E0));
#121=CARTESIAN_POINT('',(-1.13475E1,-2.136E1,1.53E0));
#122=VERTEX_POINT('',#120);
#123=VERTEX_POINT('',#121);
#124=CARTESIAN_POINT('',(1.13475E1,-2.136E1,1.53E0));
#125=VERTEX_POINT('',#124);
#126=CARTESIAN_POINT('',(1.13475E1,2.136E1,1.53E0));
#127=VERTEX_POINT('',#126);
#128=CARTESIAN_POINT('',(-1.2975E1,2.29875E1,0.E0));
#129=CARTESIAN_POINT('',(-1.2975E1,-2.68825E1,0.E0));
#130=VERTEX_POINT('',#128);
#131=VERTEX_POINT('',#129);
#132=CARTESIAN_POINT('',(1.2975E1,-2.68825E1,0.E0));
#133=VERTEX_POINT('',#132);
#134=CARTESIAN_POINT('',(1.2975E1,2.29875E1,0.E0));
#135=VERTEX_POINT('',#134);
#136=CARTESIAN_POINT('',(-1.2975E1,2.29875E1,1.53E0));
#137=CARTESIAN_POINT('',(-1.2975E1,-2.68825E1,1.53E0));
#138=VERTEX_POINT('',#136);
#139=VERTEX_POINT('',#137);
#140=CARTESIAN_POINT('',(1.2975E1,-2.68825E1,1.53E0));
#141=VERTEX_POINT('',#140);
#142=CARTESIAN_POINT('',(1.2975E1,2.29875E1,1.53E0));
#143=VERTEX_POINT('',#142);
#144=CARTESIAN_POINT('',(0.E0,0.E0,0.E0));
#145=DIRECTION('',(0.E0,0.E0,1.E0));
#146=DIRECTION('',(1.E0,0.E0,0.E0));
#147=AXIS2_PLACEMENT_3D('',#144,#145,#146);
#148=PLANE('',#147);
#150=ORIENTED_EDGE('',*,*,#149,.T.);
#152=ORIENTED_EDGE('',*,*,#151,.T.);
#154=ORIENTED_EDGE('',*,*,#153,.T.);
#156=ORIENTED_EDGE('',*,*,#155,.T.);
#157=EDGE_LOOP('',(#150,#152,#154,#156));
#158=FACE_OUTER_BOUND('',#157,.F.);
#160=CARTESIAN_POINT('',(-1.2975E1,2.29875E1,1.43E0));
#161=DIRECTION('',(-1.E0,0.E0,0.E0));
#162=DIRECTION('',(0.E0,-1.E0,0.E0));
#163=AXIS2_PLACEMENT_3D('',#160,#161,#162);
#164=PLANE('',#163);
#166=ORIENTED_EDGE('',*,*,#165,.F.);
#168=ORIENTED_EDGE('',*,*,#167,.T.);
#170=ORIENTED_EDGE('',*,*,#169,.F.);
#171=ORIENTED_EDGE('',*,*,#149,.F.);
#172=EDGE_LOOP('',(#166,#168,#170,#171));
#173=FACE_OUTER_BOUND('',#172,.F.);
#175=CARTESIAN_POINT('',(1.2975E1,2.29875E1,1.43E0));
#176=DIRECTION('',(0.E0,1.E0,0.E0));
#177=DIRECTION('',(-1.E0,0.E0,0.E0));
#178=AXIS2_PLACEMENT_3D('',#175,#176,#177);
#179=PLANE('',#178);
#181=ORIENTED_EDGE('',*,*,#180,.T.);
#183=ORIENTED_EDGE('',*,*,#182,.T.);
#184=ORIENTED_EDGE('',*,*,#165,.T.);
#185=ORIENTED_EDGE('',*,*,#155,.F.);
#186=EDGE_LOOP('',(#181,#183,#184,#185));
#187=FACE_OUTER_BOUND('',#186,.F.);
#189=CARTESIAN_POINT('',(1.2975E1,-2.68825E1,1.43E0));
#190=DIRECTION('',(1.E0,0.E0,0.E0));
#191=DIRECTION('',(0.E0,1.E0,0.E0));
#192=AXIS2_PLACEMENT_3D('',#189,#190,#191);
#193=PLANE('',#192);
#195=ORIENTED_EDGE('',*,*,#194,.T.);
#197=ORIENTED_EDGE('',*,*,#196,.T.);
#198=ORIENTED_EDGE('',*,*,#180,.F.);
#199=ORIENTED_EDGE('',*,*,#153,.F.);
#200=EDGE_LOOP('',(#195,#197,#198,#199));
#201=FACE_OUTER_BOUND('',#200,.F.);
#203=CARTESIAN_POINT('',(-1.2975E1,-2.68825E1,1.43E0));
#204=DIRECTION('',(0.E0,-1.E0,0.E0));
#205=DIRECTION('',(1.E0,0.E0,0.E0));
#206=AXIS2_PLACEMENT_3D('',#203,#204,#205);
#207=PLANE('',#206);
#208=ORIENTED_EDGE('',*,*,#169,.T.);
#210=ORIENTED_EDGE('',*,*,#209,.T.);
#211=ORIENTED_EDGE('',*,*,#194,.F.);
#212=ORIENTED_EDGE('',*,*,#151,.F.);
#213=EDGE_LOOP('',(#208,#210,#211,#212));
#214=FACE_OUTER_BOUND('',#213,.F.);
#216=CARTESIAN_POINT('',(0.E0,0.E0,1.53E0));
#217=DIRECTION('',(0.E0,0.E0,1.E0));
#218=DIRECTION('',(1.E0,0.E0,0.E0));
#219=AXIS2_PLACEMENT_3D('',#216,#217,#218);
#220=PLANE('',#219);
#221=ORIENTED_EDGE('',*,*,#167,.F.);
#222=ORIENTED_EDGE('',*,*,#182,.F.);
#223=ORIENTED_EDGE('',*,*,#196,.F.);
#224=ORIENTED_EDGE('',*,*,#209,.F.);
#225=EDGE_LOOP('',(#221,#222,#223,#224));
#226=FACE_OUTER_BOUND('',#225,.F.);
#228=ORIENTED_EDGE('',*,*,#227,.T.);
#230=ORIENTED_EDGE('',*,*,#229,.T.);
#232=ORIENTED_EDGE('',*,*,#231,.T.);
#234=ORIENTED_EDGE('',*,*,#233,.T.);
#235=EDGE_LOOP('',(#228,#230,#232,#234));
#236=FACE_BOUND('',#235,.F.);
#238=CARTESIAN_POINT('',(-1.13475E1,2.136E1,1.53E0));
#239=DIRECTION('',(-1.E0,0.E0,0.E0));
#240=DIRECTION('',(0.E0,-1.E0,0.E0));
#241=AXIS2_PLACEMENT_3D('',#238,#239,#240);
#242=PLANE('',#241);
#243=ORIENTED_EDGE('',*,*,#227,.F.);
#245=ORIENTED_EDGE('',*,*,#244,.T.);
#247=ORIENTED_EDGE('',*,*,#246,.T.);
#249=ORIENTED_EDGE('',*,*,#248,.F.);
#250=EDGE_LOOP('',(#243,#245,#247,#249));
#251=FACE_OUTER_BOUND('',#250,.F.);
#253=FILL_AREA_STYLE_COLOUR('',#3);
#254=FILL_AREA_STYLE('',(#253));
#255=SURFACE_STYLE_FILL_AREA(#254);
#256=SURFACE_SIDE_STYLE('',(#255));
#257=SURFACE_STYLE_USAGE(.POSITIVE.,#256);
#258=PRESENTATION_STYLE_ASSIGNMENT((#257));
#259=STYLED_ITEM('',(#258),#252);
#260=CARTESIAN_POINT('',(1.13475E1,2.136E1,1.53E0));
#261=DIRECTION('',(0.E0,1.E0,0.E0));
#262=DIRECTION('',(-1.E0,0.E0,0.E0));
#263=AXIS2_PLACEMENT_3D('',#260,#261,#262);
#264=PLANE('',#263);
#265=ORIENTED_EDGE('',*,*,#233,.F.);
#267=ORIENTED_EDGE('',*,*,#266,.T.);
#269=ORIENTED_EDGE('',*,*,#268,.T.);
#270=ORIENTED_EDGE('',*,*,#244,.F.);
#271=EDGE_LOOP('',(#265,#267,#269,#270));
#272=FACE_OUTER_BOUND('',#271,.F.);
#274=FILL_AREA_STYLE_COLOUR('',#3);
#275=FILL_AREA_STYLE('',(#274));
#276=SURFACE_STYLE_FILL_AREA(#275);
#277=SURFACE_SIDE_STYLE('',(#276));
#278=SURFACE_STYLE_USAGE(.POSITIVE.,#277);
#279=PRESENTATION_STYLE_ASSIGNMENT((#278));
#280=STYLED_ITEM('',(#279),#273);
#281=CARTESIAN_POINT('',(1.13475E1,-2.136E1,1.53E0));
#282=DIRECTION('',(1.E0,0.E0,0.E0));
#283=DIRECTION('',(0.E0,1.E0,0.E0));
#284=AXIS2_PLACEMENT_3D('',#281,#282,#283);
#285=PLANE('',#284);
#286=ORIENTED_EDGE('',*,*,#231,.F.);
#288=ORIENTED_EDGE('',*,*,#287,.T.);
#290=ORIENTED_EDGE('',*,*,#289,.T.);
#291=ORIENTED_EDGE('',*,*,#266,.F.);
#292=EDGE_LOOP('',(#286,#288,#290,#291));
#293=FACE_OUTER_BOUND('',#292,.F.);
#295=FILL_AREA_STYLE_COLOUR('',#3);
#296=FILL_AREA_STYLE('',(#295));
#297=SURFACE_STYLE_FILL_AREA(#296);
#298=SURFACE_SIDE_STYLE('',(#297));
#299=SURFACE_STYLE_USAGE(.POSITIVE.,#298);
#300=PRESENTATION_STYLE_ASSIGNMENT((#299));
#301=STYLED_ITEM('',(#300),#294);
#302=CARTESIAN_POINT('',(-1.13475E1,-2.136E1,1.53E0));
#303=DIRECTION('',(0.E0,-1.E0,0.E0));
#304=DIRECTION('',(1.E0,0.E0,0.E0));
#305=AXIS2_PLACEMENT_3D('',#302,#303,#304);
#306=PLANE('',#305);
#307=ORIENTED_EDGE('',*,*,#229,.F.);
#308=ORIENTED_EDGE('',*,*,#248,.T.);
#310=ORIENTED_EDGE('',*,*,#309,.T.);
#311=ORIENTED_EDGE('',*,*,#287,.F.);
#312=EDGE_LOOP('',(#307,#308,#310,#311));
#313=FACE_OUTER_BOUND('',#312,.F.);
#315=FILL_AREA_STYLE_COLOUR('',#3);
#316=FILL_AREA_STYLE('',(#315));
#317=SURFACE_STYLE_FILL_AREA(#316);
#318=SURFACE_SIDE_STYLE('',(#317));
#319=SURFACE_STYLE_USAGE(.POSITIVE.,#318);
#320=PRESENTATION_STYLE_ASSIGNMENT((#319));
#321=STYLED_ITEM('',(#320),#314);
#322=CARTESIAN_POINT('',(0.E0,0.E0,1.43E0));
#323=DIRECTION('',(0.E0,0.E0,1.E0));
#324=DIRECTION('',(1.E0,0.E0,0.E0));
#325=AXIS2_PLACEMENT_3D('',#322,#323,#324);
#326=PLANE('',#325);
#327=ORIENTED_EDGE('',*,*,#246,.F.);
#328=ORIENTED_EDGE('',*,*,#268,.F.);
#329=ORIENTED_EDGE('',*,*,#289,.F.);
#330=ORIENTED_EDGE('',*,*,#309,.F.);
#331=EDGE_LOOP('',(#327,#328,#329,#330));
#332=FACE_OUTER_BOUND('',#331,.F.);
#334=FILL_AREA_STYLE_COLOUR('',#3);
#335=FILL_AREA_STYLE('',(#334));
#336=SURFACE_STYLE_FILL_AREA(#335);
#337=SURFACE_SIDE_STYLE('',(#336));
#338=SURFACE_STYLE_USAGE(.POSITIVE.,#337);
#339=PRESENTATION_STYLE_ASSIGNMENT((#338));
#340=STYLED_ITEM('',(#339),#333);
#345=PLANE_ANGLE_MEASURE_WITH_UNIT(PLANE_ANGLE_MEASURE(1.745329251994E-2),#344);
#346=(CONVERSION_BASED_UNIT('DEGREE',#345)NAMED_UNIT(*)PLANE_ANGLE_UNIT());
#348=UNCERTAINTY_MEASURE_WITH_UNIT(LENGTH_MEASURE(1.011955567581E-2),#343,
'distance_accuracy_value',
'Maximum model space distance between geometric entities at asserted connectivities');
#351=MECHANICAL_DESIGN_GEOMETRIC_PRESENTATION_REPRESENTATION('',(#259,#280,#301,
#321,#340),#349);
#352=APPLICATION_CONTEXT('automotive_design');
#353=APPLICATION_PROTOCOL_DEFINITION('international standard',
'automotive_design',2001,#352);
#354=PRODUCT_DEFINITION_CONTEXT('part definition',#352,'design');
#355=PRODUCT_CONTEXT('',#352,'mechanical');
#356=PRODUCT('LCD-NFP190B','LCD-NFP190B','NOT SPECIFIED',(#355));
#357=PRODUCT_DEFINITION_FORMATION('5','LAST_VERSION',#356);
#365=DERIVED_UNIT_ELEMENT(#364,2.E0);
#366=DERIVED_UNIT((#365));
#367=MEASURE_REPRESENTATION_ITEM('surface area measure',AREA_MEASURE
(2.8333452E3),#366);
#372=DERIVED_UNIT_ELEMENT(#371,3.E0);
#373=DERIVED_UNIT((#372));
#374=MEASURE_REPRESENTATION_ITEM('volume measure',VOLUME_MEASURE(1.883060505E3),
#373);
#378=CARTESIAN_POINT('centre point',(0.E0,-2.047770832986E0,7.281868315352E-1));
#383=DERIVED_UNIT_ELEMENT(#382,2.E0);
#384=DERIVED_UNIT((#383));
#385=MEASURE_REPRESENTATION_ITEM('surface area measure',AREA_MEASURE
(2.8333452E3),#384);
#390=DERIVED_UNIT_ELEMENT(#389,3.E0);
#391=DERIVED_UNIT((#390));
#392=MEASURE_REPRESENTATION_ITEM('volume measure',VOLUME_MEASURE(1.883060505E3),
#391);
#396=CARTESIAN_POINT('centre point',(0.E0,-2.047770832986E0,7.281868315352E-1));
#401=PRODUCT_RELATED_PRODUCT_CATEGORY('part','',(#356));
#1=DRAUGHTING_PRE_DEFINED_COLOUR('green');
#2=COLOUR_RGB('',1.1E-2,1.2E-2,1.E0);
#3=COLOUR_RGB('',2.52E-1,2.52E-1,2.52E-1);
#4=COLOUR_RGB('',4.1E-1,2.61589E-1,1.12848E-1);
#5=COLOUR_RGB('',5.04854E-1,1.5455E-2,1.5455E-2);
#6=COLOUR_RGB('',6.35294E-1,6.86275E-1,7.4902E-1);
#7=COLOUR_RGB('',6.40777E-1,6.40777E-1,6.40777E-1);
#8=COLOUR_RGB('',6.69062E-1,6.69903E-1,6.55217E-1);
#9=COLOUR_RGB('',8.07E-1,7.65E-1,5.8E-2);
#10=COLOUR_RGB('',9.21569E-1,7.05882E-1,4.70588E-1);
#11=DRAUGHTING_PRE_DEFINED_COLOUR('red');
#12=DRAUGHTING_PRE_DEFINED_COLOUR('yellow');
#13=COLOUR_RGB('',1.E0,1.E0,5.3E-1);
#14=COLOUR_RGB('',1.E0,1.E0,9.49E-1);
#15=DRAUGHTING_PRE_DEFINED_COLOUR('white');
#149=EDGE_CURVE('',#130,#131,#19,.T.);
#151=EDGE_CURVE('',#131,#133,#23,.T.);
#153=EDGE_CURVE('',#133,#135,#27,.T.);
#155=EDGE_CURVE('',#135,#130,#31,.T.);
#159=ADVANCED_FACE('',(#158),#148,.F.);
#165=EDGE_CURVE('',#138,#130,#39,.T.);
#167=EDGE_CURVE('',#138,#139,#51,.T.);
#169=EDGE_CURVE('',#131,#139,#47,.T.);
#174=ADVANCED_FACE('',(#173),#164,.T.);
#180=EDGE_CURVE('',#135,#143,#35,.T.);
#182=EDGE_CURVE('',#143,#138,#55,.T.);
#188=ADVANCED_FACE('',(#187),#179,.T.);
#194=EDGE_CURVE('',#133,#141,#43,.T.);
#196=EDGE_CURVE('',#141,#143,#59,.T.);
#202=ADVANCED_FACE('',(#201),#193,.T.);
#209=EDGE_CURVE('',#139,#141,#63,.T.);
#215=ADVANCED_FACE('',(#214),#207,.T.);
#227=EDGE_CURVE('',#122,#123,#67,.T.);
#229=EDGE_CURVE('',#123,#125,#71,.T.);
#231=EDGE_CURVE('',#125,#127,#75,.T.);
#233=EDGE_CURVE('',#127,#122,#79,.T.);
#237=ADVANCED_FACE('',(#226,#236),#220,.T.);
#244=EDGE_CURVE('',#122,#114,#83,.T.);
#246=EDGE_CURVE('',#114,#115,#99,.T.);
#248=EDGE_CURVE('',#123,#115,#95,.T.);
#252=ADVANCED_FACE('',(#251),#242,.F.);
#266=EDGE_CURVE('',#127,#119,#87,.T.);
#268=EDGE_CURVE('',#119,#114,#103,.T.);
#273=ADVANCED_FACE('',(#272),#264,.F.);
#287=EDGE_CURVE('',#125,#117,#91,.T.);
#289=EDGE_CURVE('',#117,#119,#107,.T.);
#294=ADVANCED_FACE('',(#293),#285,.F.);
#309=EDGE_CURVE('',#115,#117,#111,.T.);
#314=ADVANCED_FACE('',(#313),#306,.F.);
#333=ADVANCED_FACE('',(#332),#326,.T.);
#341=CLOSED_SHELL('',(#159,#174,#188,#202,#215,#237,#252,#273,#294,#314,#333));
#342=MANIFOLD_SOLID_BREP('',#341);
#343=(LENGTH_UNIT()NAMED_UNIT(*)SI_UNIT(.MILLI.,.METRE.));
#344=(NAMED_UNIT(*)PLANE_ANGLE_UNIT()SI_UNIT($,.RADIAN.));
#347=(NAMED_UNIT(*)SI_UNIT($,.STERADIAN.)SOLID_ANGLE_UNIT());
#349=(GEOMETRIC_REPRESENTATION_CONTEXT(3)GLOBAL_UNCERTAINTY_ASSIGNED_CONTEXT((
#348))GLOBAL_UNIT_ASSIGNED_CONTEXT((#343,#346,#347))REPRESENTATION_CONTEXT
('ID1','3'));
#350=ADVANCED_BREP_SHAPE_REPRESENTATION('',(#342),#349);
#358=PRODUCT_DEFINITION('part definition','',#357,#354);
#359=PRODUCT_DEFINITION_SHAPE('','SHAPE FOR LCD-NFP190B.',#358);
#360=SHAPE_ASPECT('','solid data associated with LCD-NFP190B',#359,.F.);
#361=PROPERTY_DEFINITION('',
'shape for solid data with which properties are associated',#360);
#362=SHAPE_REPRESENTATION('',(#342),#349);
#363=SHAPE_DEFINITION_REPRESENTATION(#361,#362);
#364=(LENGTH_UNIT()NAMED_UNIT(*)SI_UNIT(.MILLI.,.METRE.));
#368=PROPERTY_DEFINITION('geometric validation property','area of LCD-NFP190B',
#360);
#369=REPRESENTATION('surface area',(#367),#349);
#370=PROPERTY_DEFINITION_REPRESENTATION(#368,#369);
#371=(LENGTH_UNIT()NAMED_UNIT(*)SI_UNIT(.MILLI.,.METRE.));
#375=PROPERTY_DEFINITION('geometric validation property',
'volume of LCD-NFP190B',#360);
#376=REPRESENTATION('volume',(#374),#349);
#377=PROPERTY_DEFINITION_REPRESENTATION(#375,#376);
#379=PROPERTY_DEFINITION('geometric validation property',
'centroid of LCD-NFP190B',#360);
#380=REPRESENTATION('centroid',(#378),#349);
#381=PROPERTY_DEFINITION_REPRESENTATION(#379,#380);
#382=(LENGTH_UNIT()NAMED_UNIT(*)SI_UNIT(.MILLI.,.METRE.));
#386=PROPERTY_DEFINITION('geometric validation property','area of LCD-NFP190B',
#359);
#387=REPRESENTATION('surface area',(#385),#349);
#388=PROPERTY_DEFINITION_REPRESENTATION(#386,#387);
#389=(LENGTH_UNIT()NAMED_UNIT(*)SI_UNIT(.MILLI.,.METRE.));
#393=PROPERTY_DEFINITION('geometric validation property',
'volume of LCD-NFP190B',#359);
#394=REPRESENTATION('volume',(#392),#349);
#395=PROPERTY_DEFINITION_REPRESENTATION(#393,#394);
#397=PROPERTY_DEFINITION('geometric validation property',
'centroid of LCD-NFP190B',#359);
#398=REPRESENTATION('centroid',(#396),#349);
#399=PROPERTY_DEFINITION_REPRESENTATION(#397,#398);
#400=SHAPE_DEFINITION_REPRESENTATION(#359,#350);
ENDSEC;
END-ISO-10303-21;
